
        <svg xmlns="http://www.w3.org/2000/svg" xmlns:xlink="http://www.w3.org/1999/xlink" version="1.1" width="3177.234870278065" 
        height="886.1743513903281" viewBox="0 0 3177.234870278065 886.1743513903281">
			
			<g transform="scale(8.861743513903281) translate(10, 10)">
				<defs id="SvgjsDefs2899"></defs><g id="SvgjsG2900" featureKey="nRdZyp-0" transform="matrix(1.6877636587484606,0,0,1.6877636587484606,-15.86497452925108,-2.1940946878652228)" fill="#d72323"><g xmlns="http://www.w3.org/2000/svg"><path d="M38.5,24.7c1.4-2.4,2.1-5,2.1-7.8c0-8.6-7-15.6-15.6-15.6c-5.6,0-10.7,2.9-13.5,7.8c-2.8,4.9-2.8,10.7,0,15.7   c0,0.1,3.7,5.3,5.4,8.8c0.5,1,0.7,2,0.7,3.1c0,0,0,0,0,0c0,0,0,0,0,0v4.5c0,2,1.5,3.6,3.5,3.7c0,0,0,0,0,0c0,2.1,1.7,3.8,3.8,3.8   s3.8-1.7,3.8-3.8c0,0,0,0,0,0c2-0.1,3.5-1.7,3.5-3.7v-4.5c0,0,0,0,0-0.1c0-1,0.2-2,0.7-2.9C34.7,30.2,38.4,24.8,38.5,24.7z    M26.8,44.9c0,1-0.8,1.8-1.8,1.8s-1.8-0.8-1.8-1.8c0,0,0,0,0,0L26.8,44.9C26.8,44.8,26.8,44.9,26.8,44.9z M30.3,41.1   c0,1-0.8,1.7-1.7,1.7h-7.2c-1,0-1.7-0.8-1.7-1.7v-3.5h10.6V41.1z M19,20.7c-0.3-0.5-0.6-1.1-0.7-1.7c-0.1-0.3-0.5-0.6-0.7-0.7   L16.2,18v-1.5l1.3-0.3c0.4-0.1,0.7-0.4,0.7-0.7c0.2-0.6,0.4-1.2,0.7-1.7c0.2-0.3,0.1-0.8,0-1l-0.7-1.1l1.1-1.1l1.1,0.7c0,0,0,0,0,0   c0.3,0.2,0.7,0.2,1,0c0.5-0.3,1.1-0.6,1.7-0.7c0,0,0,0,0,0c0.4-0.1,0.6-0.4,0.7-0.7l0.3-1.3h1.5L26,9.7c0.1,0.3,0.4,0.7,0.7,0.7   c0.6,0.2,1.2,0.4,1.7,0.7c0.3,0.2,0.7,0.2,1,0c0,0,0,0,0,0l1.1-0.7l1.1,1.1L31,12.6c-0.2,0.3-0.2,0.8,0,1c0.3,0.5,0.6,1.1,0.7,1.7   c0.1,0.4,0.4,0.6,0.7,0.7l1.3,0.3v1.5l-1.3,0.3c-0.9,0.2-0.6,1-1.5,2.5c-0.2,0.3-0.1,0.8,0,1l0.7,1.1l-1.1,1.1l-1.1-0.7   c-0.3-0.2-0.8-0.2-1,0c-0.5,0.3-1.1,0.6-1.7,0.7c-0.3,0.1-0.6,0.4-0.7,0.7L25.8,26h-1.5L24,24.7c-0.1-0.3-0.4-0.7-0.7-0.7   c-0.6-0.2-1.2-0.4-1.7-0.7c-0.3-0.2-0.8-0.1-1,0L19.4,24l-1.1-1.1l0.7-1.1C19.1,21.5,19.1,21,19,20.7z M31.2,32.8   c-0.4,0.9-0.7,1.9-0.8,2.9H26V28h0.6c0.5,0,0.9-0.3,1-0.8l0.4-1.5c0.4-0.1,0.7-0.3,1.1-0.5l1.3,0.8c0.2,0.1,0.3,0.1,0.5,0.1   c0.3,0,0.5-0.1,0.7-0.3l2.2-2.2c0.3-0.3,0.4-0.8,0.1-1.2l-0.8-1.3c0.2-0.4,0.3-0.7,0.5-1.1l1.5-0.3c0.5-0.1,0.8-0.5,0.8-1v-3.1   c0-0.5-0.3-0.9-0.8-1l-1.5-0.4c-0.1-0.4-0.3-0.7-0.5-1.1l0.8-1.3c0.2-0.4,0.2-0.9-0.1-1.2l-2.2-2.2c-0.3-0.3-0.8-0.4-1.2-0.1   l-1.3,0.8c-0.4-0.2-0.7-0.3-1.1-0.5l-0.3-1.5c-0.1-0.5-0.5-0.8-1-0.8h-3.1c-0.5,0-0.9,0.3-1,0.8l-0.4,1.5C21.7,8.8,21.3,9,21,9.1   l-1.3-0.8c-0.4-0.2-0.9-0.2-1.2,0.1l-2.2,2.2c-0.3,0.3-0.4,0.8-0.1,1.2l0.8,1.3c-0.2,0.4-0.3,0.7-0.5,1.1L15,14.7   c-0.5,0.1-0.8,0.5-0.8,1v3.1c0,0.5,0.3,0.9,0.8,1l1.5,0.4c0.1,0.4,0.3,0.7,0.5,1.1l-0.8,1.3c-0.2,0.4-0.2,0.9,0.1,1.2l2.2,2.2   c0.2,0.2,0.4,0.3,0.7,0.3c0.2,0,0.4,0,0.5-0.1l1.3-0.8c0.4,0.2,0.7,0.3,1.1,0.5l0.4,1.5c0.1,0.5,0.5,0.8,1,0.8H24v7.7h-4.4   c-0.1-1-0.4-2.1-0.9-3c-1.8-3.6-5.4-8.8-5.5-9c-2.5-4.3-2.5-9.3,0-13.6c2.5-4.3,6.9-6.8,11.8-6.8c7.5,0,13.6,6.1,13.6,13.6   c0,2.4-0.6,4.6-1.8,6.7C36.7,23.8,33,29.2,31.2,32.8z"></path><path d="M25,21.5c2.4,0,4.3-1.9,4.3-4.3s-1.9-4.3-4.3-4.3s-4.3,1.9-4.3,4.3S22.6,21.5,25,21.5z M25,14.9c1.3,0,2.3,1,2.3,2.3   s-1,2.3-2.3,2.3s-2.3-1-2.3-2.3S23.7,14.9,25,14.9z"></path></g></g><g id="SvgjsG2901" featureKey="Q4qmbg-0" transform="matrix(3.4920632101340963,0,0,3.4920632101340963,75.0666663706408,-13.952372600222589)" fill="#d72323"><path d="M6.64 10.34 l0 2.78 l-2.8 0 l0 1.88 c0 1.54 1.02 2.32 2.5 2.32 c0.18 0 0.34 -0.02 0.48 -0.04 s0.26 -0.04 0.4 -0.06 l0 2.78 c-0.18 0.02 -0.32 0.06 -0.42 0.08 c-0.12 0.02 -0.32 0.02 -0.58 0.02 c-3.02 0 -5.38 -2.06 -5.38 -5.1 l0 -7.4 l3 0 l0 2.74 l2.8 0 z M10.483916666666666 13.8 c0.3 0.1 0.64 0.18 1 0.22 c0.36 0.06 0.7 0.08 1.02 0.08 c0.4 0 1.42 -0.08 1.42 -0.66 c0 -0.62 -0.88 -0.64 -1.32 -0.64 c-0.88 0 -1.64 0.2 -2.12 1 z M16.143916666666666 16.88 l0 2.8 c-1.12 0.26 -2.24 0.44 -3.4 0.44 c-3.18 0 -5.54 -1.86 -5.54 -5.08 c0 -3.18 2.28 -5.14 5.3 -5.14 c2.06 0 4.44 0.98 4.44 3.32 c0 2.32 -2.52 3.18 -4.46 3.18 c-0.74 0 -1.48 -0.2 -2.16 -0.48 c0.4 1.12 1.6 1.3 2.64 1.3 c0.54 0 1.08 -0.02 1.62 -0.1 c0.5 -0.04 1.08 -0.1 1.56 -0.24 z M25.70783333333333 16.7 l0 3 c-1.02 0.34 -2.08 0.44 -3.14 0.44 c-3.1 0 -5.3 -2.06 -5.3 -5.12 c0 -3.18 2.28 -5.12 5.3 -5.12 c1.06 0 2.12 0.1 3.14 0.44 l0 3 c-0.88 -0.46 -1.98 -0.58 -2.96 -0.58 c-0.66 0 -1.46 0.14 -1.92 0.66 c-0.42 0.42 -0.56 1.02 -0.56 1.58 c0 0.32 0.04 0.62 0.14 0.88 c0.08 0.28 0.22 0.52 0.42 0.72 c0.44 0.54 1.26 0.68 1.92 0.68 c0.88 0 2.18 -0.16 2.96 -0.58 z M29.951749999999997 15 l0 5 l-3 0 l0 -14 l3 0 l0 4.92 c0.7 -0.74 1.58 -1.02 2.58 -1.02 c2.84 0 4.62 2.44 4.62 5.1 l0 5 l-3 0 l0 -5 c0 -1.36 -0.54 -2.32 -2 -2.32 c-1.44 0 -2.2 0.92 -2.2 2.32 z M41.41566666666667 15 c0 1.48 0.74 2.32 2.24 2.32 c0.42 0 0.8 -0.06 1.1 -0.2 c0.56 -0.22 0.94 -0.64 1.14 -1.22 c0.08 -0.28 0.12 -0.58 0.12 -0.9 s-0.04 -0.62 -0.12 -0.9 c-0.22 -0.62 -0.56 -0.96 -1.14 -1.24 c-0.3 -0.12 -0.68 -0.18 -1.1 -0.18 c-1.5 0 -2.24 0.84 -2.24 2.32 z M38.41566666666667 6 l3 0 l0 5 c0.68 -0.78 1.6 -1.1 2.62 -1.1 c2.92 0 4.98 2.34 4.98 5.14 c0 3.16 -2.34 5.06 -5.32 5.06 c-3.1 0 -5.28 -2.04 -5.28 -5.1 l0 -9 z M49.73958333333333 6 l3 0 l0 14 l-3 0 l0 -14 z M58.98349999999999 17.32 c1.46 0 2.3 -0.86 2.3 -2.32 s-0.84 -2.32 -2.3 -2.32 s-2.3 0.86 -2.3 2.32 s0.84 2.32 2.3 2.32 z M58.98349999999999 20.1 c-3.08 0 -5.3 -2.04 -5.3 -5.1 c0 -3.16 2.3 -5.1 5.3 -5.1 c3.1 0 5.3 2.04 5.3 5.1 c0 3.14 -2.32 5.1 -5.3 5.1 z M71.40741666666666 14 c0 -1.06 -1.02 -1.32 -1.9 -1.32 s-1.9 0.26 -1.9 1.32 s1.02 1.32 1.9 1.32 s1.9 -0.26 1.9 -1.32 z M70.60741666666667 21.9 c0 -0.68 -0.48 -0.94 -1.1 -0.94 s-1.1 0.26 -1.1 0.94 s0.48 0.94 1.1 0.94 s1.1 -0.26 1.1 -0.94 z M73.30741666666665 21.9 c0 2.12 -1.98 3 -3.8 3 c-1.84 0 -3.8 -0.96 -3.8 -3 c0 -1.5 1.1 -2.52 2.5 -2.84 l0 -1.08 c-0.58 -0.1 -1.08 -0.28 -1.52 -0.54 c-1.3 -0.68 -2.08 -1.98 -2.08 -3.44 c0 -2.76 2.46 -4.1 4.9 -4.1 c1.08 0 2 0.2 2.76 0.62 c0.78 -0.38 1.54 -0.52 2.4 -0.52 l0.78 0 l0 2.42 l-0.44 0 l-0.44 0 c-0.14 0.02 -0.3 0.04 -0.46 0.08 c0.2 0.46 0.3 0.96 0.3 1.5 c0 2.14 -1.54 3.54 -3.5 3.96 l0 1.12 c1.34 0.38 2.4 1.36 2.4 2.82 z"></path></g>
			</g>
		</svg>
	